<svg id="visual" viewBox="0 0 2000 200" width="2000" height="200" xmlns="http://www.w3.org/2000/svg" xmlns:xlink="http://www.w3.org/1999/xlink" version="1.1"><rect x="0" y="0" width="2000" height="200" fill="#EAC435"></rect><path d="M0 35L22.2 38.3C44.3 41.7 88.7 48.3 133.2 50.3C177.7 52.3 222.3 49.7 266.8 46.7C311.3 43.7 355.7 40.3 400 41.3C444.3 42.3 488.7 47.7 533.2 52.5C577.7 57.3 622.3 61.7 666.8 57.7C711.3 53.7 755.7 41.3 800 35.5C844.3 29.7 888.7 30.3 933.2 34.7C977.7 39 1022.3 47 1066.8 46.3C1111.3 45.7 1155.7 36.3 1200 30.5C1244.3 24.7 1288.7 22.3 1333.2 28.7C1377.7 35 1422.3 50 1466.8 52C1511.3 54 1555.7 43 1600 36.5C1644.3 30 1688.7 28 1733.2 27.8C1777.7 27.7 1822.3 29.3 1866.8 27.2C1911.3 25 1955.7 19 1977.8 16L2000 13L2000 201L1977.8 201C1955.7 201 1911.3 201 1866.8 201C1822.3 201 1777.7 201 1733.2 201C1688.7 201 1644.3 201 1600 201C1555.7 201 1511.3 201 1466.8 201C1422.3 201 1377.7 201 1333.2 201C1288.7 201 1244.3 201 1200 201C1155.7 201 1111.3 201 1066.8 201C1022.3 201 977.7 201 933.2 201C888.7 201 844.3 201 800 201C755.7 201 711.3 201 666.8 201C622.3 201 577.7 201 533.2 201C488.7 201 444.3 201 400 201C355.7 201 311.3 201 266.8 201C222.3 201 177.7 201 133.2 201C88.7 201 44.3 201 22.2 201L0 201Z" fill="#ed6a5a"></path><path d="M0 88L22.2 85.5C44.3 83 88.7 78 133.2 74.7C177.7 71.3 222.3 69.7 266.8 73.3C311.3 77 355.7 86 400 83.8C444.3 81.7 488.7 68.3 533.2 70.2C577.7 72 622.3 89 666.8 90.5C711.3 92 755.7 78 800 72.3C844.3 66.7 888.7 69.3 933.2 76.2C977.7 83 1022.3 94 1066.8 95.3C1111.3 96.7 1155.7 88.3 1200 84.2C1244.3 80 1288.7 80 1333.2 76C1377.7 72 1422.3 64 1466.8 59.7C1511.3 55.3 1555.7 54.7 1600 57.8C1644.3 61 1688.7 68 1733.2 72C1777.7 76 1822.3 77 1866.8 78.3C1911.3 79.7 1955.7 81.3 1977.8 82.2L2000 83L2000 201L1977.8 201C1955.7 201 1911.3 201 1866.8 201C1822.3 201 1777.7 201 1733.2 201C1688.7 201 1644.3 201 1600 201C1555.7 201 1511.3 201 1466.8 201C1422.3 201 1377.7 201 1333.2 201C1288.7 201 1244.3 201 1200 201C1155.7 201 1111.3 201 1066.8 201C1022.3 201 977.7 201 933.2 201C888.7 201 844.3 201 800 201C755.7 201 711.3 201 666.8 201C622.3 201 577.7 201 533.2 201C488.7 201 444.3 201 400 201C355.7 201 311.3 201 266.8 201C222.3 201 177.7 201 133.2 201C88.7 201 44.3 201 22.2 201L0 201Z" fill="#a54553"></path><path d="M0 97L22.2 101.2C44.3 105.3 88.7 113.7 133.2 120.8C177.7 128 222.3 134 266.8 132.3C311.3 130.7 355.7 121.3 400 119C444.3 116.7 488.7 121.3 533.2 119C577.7 116.7 622.3 107.3 666.8 106.3C711.3 105.3 755.7 112.7 800 120.3C844.3 128 888.7 136 933.2 134.5C977.7 133 1022.3 122 1066.8 115.3C1111.3 108.7 1155.7 106.3 1200 103.3C1244.3 100.3 1288.7 96.7 1333.2 97.8C1377.7 99 1422.3 105 1466.8 110.7C1511.3 116.3 1555.7 121.7 1600 125.8C1644.3 130 1688.7 133 1733.2 135.2C1777.7 137.3 1822.3 138.7 1866.8 137.7C1911.3 136.7 1955.7 133.3 1977.8 131.7L2000 130L2000 201L1977.8 201C1955.7 201 1911.3 201 1866.8 201C1822.3 201 1777.7 201 1733.2 201C1688.7 201 1644.3 201 1600 201C1555.7 201 1511.3 201 1466.8 201C1422.3 201 1377.7 201 1333.2 201C1288.7 201 1244.3 201 1200 201C1155.7 201 1111.3 201 1066.8 201C1022.3 201 977.7 201 933.2 201C888.7 201 844.3 201 800 201C755.7 201 711.3 201 666.8 201C622.3 201 577.7 201 533.2 201C488.7 201 444.3 201 400 201C355.7 201 311.3 201 266.8 201C222.3 201 177.7 201 133.2 201C88.7 201 44.3 201 22.2 201L0 201Z" fill="#5c2a3d"></path><path d="M0 176L22.2 172.5C44.3 169 88.7 162 133.2 163.2C177.7 164.3 222.3 173.7 266.8 176.5C311.3 179.3 355.7 175.7 400 170C444.3 164.3 488.7 156.7 533.2 156.8C577.7 157 622.3 165 666.8 162.3C711.3 159.7 755.7 146.3 800 145.8C844.3 145.3 888.7 157.7 933.2 157.7C977.7 157.7 1022.3 145.3 1066.8 147.2C1111.3 149 1155.7 165 1200 165.5C1244.3 166 1288.7 151 1333.2 150.7C1377.7 150.3 1422.3 164.7 1466.8 173C1511.3 181.3 1555.7 183.7 1600 180C1644.3 176.3 1688.7 166.7 1733.2 165.8C1777.7 165 1822.3 173 1866.8 168.8C1911.3 164.7 1955.7 148.3 1977.8 140.2L2000 132L2000 201L1977.8 201C1955.7 201 1911.3 201 1866.8 201C1822.3 201 1777.7 201 1733.2 201C1688.7 201 1644.3 201 1600 201C1555.7 201 1511.3 201 1466.8 201C1422.3 201 1377.7 201 1333.2 201C1288.7 201 1244.3 201 1200 201C1155.7 201 1111.3 201 1066.8 201C1022.3 201 977.7 201 933.2 201C888.7 201 844.3 201 800 201C755.7 201 711.3 201 666.8 201C622.3 201 577.7 201 533.2 201C488.7 201 444.3 201 400 201C355.7 201 311.3 201 266.8 201C222.3 201 177.7 201 133.2 201C88.7 201 44.3 201 22.2 201L0 201Z" fill="#1c1018"></path></svg>