<svg id="visual" viewBox="0 0 1000 200" width="1000" height="200" xmlns="http://www.w3.org/2000/svg" xmlns:xlink="http://www.w3.org/1999/xlink" version="1.1"><rect x="0" y="0" width="1000" height="200" fill="#EAC435"></rect><path d="M0 35L11.2 38.3C22.3 41.7 44.7 48.3 66.8 50.3C89 52.3 111 49.7 133.2 46.7C155.3 43.7 177.7 40.3 200 41.3C222.3 42.3 244.7 47.7 266.8 52.5C289 57.3 311 61.7 333.2 57.7C355.3 53.7 377.7 41.3 400 35.5C422.3 29.7 444.7 30.3 466.8 34.7C489 39 511 47 533.2 46.3C555.3 45.7 577.7 36.3 600 30.5C622.3 24.7 644.7 22.3 666.8 28.7C689 35 711 50 733.2 52C755.3 54 777.7 43 800 36.5C822.3 30 844.7 28 866.8 27.8C889 27.7 911 29.3 933.2 27.2C955.3 25 977.7 19 988.8 16L1000 13L1000 201L988.8 201C977.7 201 955.3 201 933.2 201C911 201 889 201 866.8 201C844.7 201 822.3 201 800 201C777.7 201 755.3 201 733.2 201C711 201 689 201 666.8 201C644.7 201 622.3 201 600 201C577.7 201 555.3 201 533.2 201C511 201 489 201 466.8 201C444.7 201 422.3 201 400 201C377.7 201 355.3 201 333.2 201C311 201 289 201 266.8 201C244.7 201 222.3 201 200 201C177.7 201 155.3 201 133.2 201C111 201 89 201 66.8 201C44.7 201 22.3 201 11.2 201L0 201Z" fill="#ed6a5a"></path><path d="M0 88L11.2 85.5C22.3 83 44.7 78 66.8 74.7C89 71.3 111 69.7 133.2 73.3C155.3 77 177.7 86 200 83.8C222.3 81.7 244.7 68.3 266.8 70.2C289 72 311 89 333.2 90.5C355.3 92 377.7 78 400 72.3C422.3 66.7 444.7 69.3 466.8 76.2C489 83 511 94 533.2 95.3C555.3 96.7 577.7 88.3 600 84.2C622.3 80 644.7 80 666.8 76C689 72 711 64 733.2 59.7C755.3 55.3 777.7 54.7 800 57.8C822.3 61 844.7 68 866.8 72C889 76 911 77 933.2 78.3C955.3 79.7 977.7 81.3 988.8 82.2L1000 83L1000 201L988.8 201C977.7 201 955.3 201 933.2 201C911 201 889 201 866.8 201C844.7 201 822.3 201 800 201C777.7 201 755.3 201 733.2 201C711 201 689 201 666.8 201C644.7 201 622.3 201 600 201C577.7 201 555.3 201 533.2 201C511 201 489 201 466.8 201C444.7 201 422.3 201 400 201C377.7 201 355.3 201 333.2 201C311 201 289 201 266.8 201C244.7 201 222.3 201 200 201C177.7 201 155.3 201 133.2 201C111 201 89 201 66.8 201C44.7 201 22.3 201 11.2 201L0 201Z" fill="#a54553"></path><path d="M0 97L11.2 101.2C22.3 105.3 44.7 113.7 66.8 120.8C89 128 111 134 133.2 132.3C155.3 130.7 177.7 121.3 200 119C222.3 116.7 244.7 121.3 266.8 119C289 116.7 311 107.3 333.2 106.3C355.3 105.3 377.7 112.7 400 120.3C422.3 128 444.7 136 466.8 134.5C489 133 511 122 533.2 115.3C555.3 108.7 577.7 106.3 600 103.3C622.3 100.3 644.7 96.7 666.8 97.8C689 99 711 105 733.2 110.7C755.3 116.3 777.7 121.7 800 125.8C822.3 130 844.7 133 866.8 135.2C889 137.3 911 138.7 933.2 137.7C955.3 136.7 977.7 133.3 988.8 131.7L1000 130L1000 201L988.8 201C977.7 201 955.3 201 933.2 201C911 201 889 201 866.8 201C844.7 201 822.3 201 800 201C777.7 201 755.3 201 733.2 201C711 201 689 201 666.8 201C644.7 201 622.3 201 600 201C577.7 201 555.3 201 533.2 201C511 201 489 201 466.8 201C444.7 201 422.3 201 400 201C377.7 201 355.3 201 333.2 201C311 201 289 201 266.8 201C244.7 201 222.3 201 200 201C177.7 201 155.3 201 133.2 201C111 201 89 201 66.8 201C44.7 201 22.3 201 11.2 201L0 201Z" fill="#5c2a3d"></path><path d="M0 176L11.2 172.5C22.3 169 44.7 162 66.8 163.2C89 164.3 111 173.7 133.2 176.5C155.3 179.3 177.7 175.7 200 170C222.3 164.3 244.7 156.7 266.8 156.8C289 157 311 165 333.2 162.3C355.3 159.7 377.7 146.3 400 145.8C422.3 145.3 444.7 157.7 466.8 157.7C489 157.7 511 145.3 533.2 147.2C555.3 149 577.7 165 600 165.5C622.3 166 644.7 151 666.8 150.7C689 150.3 711 164.7 733.2 173C755.3 181.3 777.7 183.7 800 180C822.3 176.3 844.7 166.7 866.8 165.8C889 165 911 173 933.2 168.8C955.3 164.7 977.7 148.3 988.8 140.2L1000 132L1000 201L988.8 201C977.7 201 955.3 201 933.2 201C911 201 889 201 866.8 201C844.7 201 822.3 201 800 201C777.7 201 755.3 201 733.2 201C711 201 689 201 666.8 201C644.7 201 622.3 201 600 201C577.7 201 555.3 201 533.2 201C511 201 489 201 466.8 201C444.7 201 422.3 201 400 201C377.7 201 355.3 201 333.2 201C311 201 289 201 266.8 201C244.7 201 222.3 201 200 201C177.7 201 155.3 201 133.2 201C111 201 89 201 66.8 201C44.7 201 22.3 201 11.2 201L0 201Z" fill="#1c1018"></path></svg>